<mxfile host="app.diagrams.net" modified="2023-12-19T03:26:29.398Z" agent="Mozilla/5.0 (Windows NT 10.0; Win64; x64) AppleWebKit/537.36 (KHTML, like Gecko) Chrome/120.0.0.0 Safari/537.36" etag="rmDpEKjlSdpxn8QCfHiA" version="22.1.11" type="github">
  <diagram name="Page-1" id="ulOpeF8nahXcdeIZI8J-">
    <mxGraphModel dx="2763" dy="2087" grid="1" gridSize="10" guides="1" tooltips="1" connect="1" arrows="1" fold="1" page="1" pageScale="1" pageWidth="827" pageHeight="1169" math="0" shadow="0">
      <root>
        <mxCell id="0" />
        <mxCell id="1" parent="0" />
        <mxCell id="NCgDVOWuUd7d639b9hfE-2" value="유저" style="rounded=0;whiteSpace=wrap;html=1;" vertex="1" parent="1">
          <mxGeometry x="90" y="350" width="120" height="60" as="geometry" />
        </mxCell>
        <mxCell id="NCgDVOWuUd7d639b9hfE-3" value="상품" style="rounded=0;whiteSpace=wrap;html=1;" vertex="1" parent="1">
          <mxGeometry x="145" y="-135" width="120" height="60" as="geometry" />
        </mxCell>
        <mxCell id="NCgDVOWuUd7d639b9hfE-4" value="&lt;font style=&quot;font-size: 25px;&quot;&gt;쓰레기&lt;/font&gt;" style="rounded=0;whiteSpace=wrap;html=1;" vertex="1" parent="1">
          <mxGeometry x="860" y="-50" width="120" height="60" as="geometry" />
        </mxCell>
        <mxCell id="NCgDVOWuUd7d639b9hfE-5" value="&lt;u&gt;쓰레기 번호&lt;/u&gt;" style="ellipse;whiteSpace=wrap;html=1;" vertex="1" parent="1">
          <mxGeometry x="1030" y="-325" width="100" height="60" as="geometry" />
        </mxCell>
        <mxCell id="NCgDVOWuUd7d639b9hfE-6" value="&lt;u&gt;유저아이디&lt;/u&gt;" style="ellipse;whiteSpace=wrap;html=1;" vertex="1" parent="1">
          <mxGeometry x="290" y="810" width="100" height="60" as="geometry" />
        </mxCell>
        <mxCell id="NCgDVOWuUd7d639b9hfE-7" value="&lt;u&gt;회원아이디&lt;/u&gt;" style="ellipse;whiteSpace=wrap;html=1;" vertex="1" parent="1">
          <mxGeometry x="390" y="-320" width="100" height="60" as="geometry" />
        </mxCell>
        <mxCell id="NCgDVOWuUd7d639b9hfE-8" value="출석보상" style="ellipse;whiteSpace=wrap;html=1;" vertex="1" parent="1">
          <mxGeometry x="254" y="920" width="100" height="60" as="geometry" />
        </mxCell>
        <mxCell id="NCgDVOWuUd7d639b9hfE-9" value="출석날짜" style="ellipse;whiteSpace=wrap;html=1;" vertex="1" parent="1">
          <mxGeometry x="165" y="980" width="100" height="60" as="geometry" />
        </mxCell>
        <mxCell id="NCgDVOWuUd7d639b9hfE-10" value="출석횟수" style="ellipse;whiteSpace=wrap;html=1;" vertex="1" parent="1">
          <mxGeometry x="50" y="980" width="100" height="60" as="geometry" />
        </mxCell>
        <mxCell id="NCgDVOWuUd7d639b9hfE-11" value="&lt;u&gt;퀴즈번호&lt;/u&gt;" style="ellipse;whiteSpace=wrap;html=1;" vertex="1" parent="1">
          <mxGeometry x="-460" y="790" width="100" height="60" as="geometry" />
        </mxCell>
        <mxCell id="NCgDVOWuUd7d639b9hfE-12" value="상품 가격" style="ellipse;whiteSpace=wrap;html=1;" vertex="1" parent="1">
          <mxGeometry x="260" y="-310" width="100" height="60" as="geometry" />
        </mxCell>
        <mxCell id="NCgDVOWuUd7d639b9hfE-13" value="상품 설명" style="ellipse;whiteSpace=wrap;html=1;" vertex="1" parent="1">
          <mxGeometry x="189" y="-380" width="100" height="60" as="geometry" />
        </mxCell>
        <mxCell id="NCgDVOWuUd7d639b9hfE-14" value="&lt;u&gt;상품번호&lt;/u&gt;" style="ellipse;whiteSpace=wrap;html=1;" vertex="1" parent="1">
          <mxGeometry x="65" y="-380" width="100" height="60" as="geometry" />
        </mxCell>
        <mxCell id="NCgDVOWuUd7d639b9hfE-15" value="상품명" style="ellipse;whiteSpace=wrap;html=1;" vertex="1" parent="1">
          <mxGeometry x="5" y="-310" width="100" height="60" as="geometry" />
        </mxCell>
        <mxCell id="NCgDVOWuUd7d639b9hfE-16" value="&lt;u&gt;유저아이디&lt;/u&gt;" style="ellipse;whiteSpace=wrap;html=1;" vertex="1" parent="1">
          <mxGeometry x="-250" y="-60" width="100" height="60" as="geometry" />
        </mxCell>
        <mxCell id="NCgDVOWuUd7d639b9hfE-17" value="점수" style="ellipse;whiteSpace=wrap;html=1;" vertex="1" parent="1">
          <mxGeometry x="-290" y="340" width="100" height="60" as="geometry" />
        </mxCell>
        <mxCell id="NCgDVOWuUd7d639b9hfE-18" value="포인트" style="ellipse;whiteSpace=wrap;html=1;" vertex="1" parent="1">
          <mxGeometry x="-330" y="280" width="100" height="60" as="geometry" />
        </mxCell>
        <mxCell id="NCgDVOWuUd7d639b9hfE-19" value="닉네임" style="ellipse;whiteSpace=wrap;html=1;" vertex="1" parent="1">
          <mxGeometry x="-340" y="210" width="100" height="60" as="geometry" />
        </mxCell>
        <mxCell id="NCgDVOWuUd7d639b9hfE-20" value="주소" style="ellipse;whiteSpace=wrap;html=1;" vertex="1" parent="1">
          <mxGeometry x="-340" y="140" width="100" height="60" as="geometry" />
        </mxCell>
        <mxCell id="NCgDVOWuUd7d639b9hfE-21" value="이름" style="ellipse;whiteSpace=wrap;html=1;" vertex="1" parent="1">
          <mxGeometry x="-320" y="75" width="100" height="60" as="geometry" />
        </mxCell>
        <mxCell id="NCgDVOWuUd7d639b9hfE-22" value="유저비밀번호" style="ellipse;whiteSpace=wrap;html=1;" vertex="1" parent="1">
          <mxGeometry x="-280" y="15" width="100" height="60" as="geometry" />
        </mxCell>
        <mxCell id="NCgDVOWuUd7d639b9hfE-23" value="" style="endArrow=none;html=1;rounded=0;exitX=1;exitY=1;exitDx=0;exitDy=0;entryX=0;entryY=0.5;entryDx=0;entryDy=0;" edge="1" parent="1" source="NCgDVOWuUd7d639b9hfE-16" target="NCgDVOWuUd7d639b9hfE-2">
          <mxGeometry width="50" height="50" relative="1" as="geometry">
            <mxPoint x="390" y="430" as="sourcePoint" />
            <mxPoint x="35" y="370" as="targetPoint" />
          </mxGeometry>
        </mxCell>
        <mxCell id="NCgDVOWuUd7d639b9hfE-24" value="" style="endArrow=none;html=1;rounded=0;exitX=1;exitY=1;exitDx=0;exitDy=0;entryX=0;entryY=0.5;entryDx=0;entryDy=0;" edge="1" parent="1" source="NCgDVOWuUd7d639b9hfE-22" target="NCgDVOWuUd7d639b9hfE-2">
          <mxGeometry width="50" height="50" relative="1" as="geometry">
            <mxPoint x="320" y="480" as="sourcePoint" />
            <mxPoint x="373" y="706" as="targetPoint" />
          </mxGeometry>
        </mxCell>
        <mxCell id="NCgDVOWuUd7d639b9hfE-25" value="" style="endArrow=none;html=1;rounded=0;exitX=1;exitY=1;exitDx=0;exitDy=0;entryX=0;entryY=0.5;entryDx=0;entryDy=0;" edge="1" parent="1" source="NCgDVOWuUd7d639b9hfE-21" target="NCgDVOWuUd7d639b9hfE-2">
          <mxGeometry width="50" height="50" relative="1" as="geometry">
            <mxPoint x="340" y="590" as="sourcePoint" />
            <mxPoint x="390" y="540" as="targetPoint" />
          </mxGeometry>
        </mxCell>
        <mxCell id="NCgDVOWuUd7d639b9hfE-26" value="" style="endArrow=none;html=1;rounded=0;exitX=1;exitY=0.5;exitDx=0;exitDy=0;entryX=0;entryY=0.5;entryDx=0;entryDy=0;" edge="1" parent="1" source="NCgDVOWuUd7d639b9hfE-20" target="NCgDVOWuUd7d639b9hfE-2">
          <mxGeometry width="50" height="50" relative="1" as="geometry">
            <mxPoint x="350" y="600" as="sourcePoint" />
            <mxPoint x="400" y="550" as="targetPoint" />
          </mxGeometry>
        </mxCell>
        <mxCell id="NCgDVOWuUd7d639b9hfE-27" value="" style="endArrow=none;html=1;rounded=0;exitX=1;exitY=0;exitDx=0;exitDy=0;entryX=0;entryY=0.5;entryDx=0;entryDy=0;" edge="1" parent="1" source="NCgDVOWuUd7d639b9hfE-19" target="NCgDVOWuUd7d639b9hfE-2">
          <mxGeometry width="50" height="50" relative="1" as="geometry">
            <mxPoint x="360" y="610" as="sourcePoint" />
            <mxPoint x="410" y="560" as="targetPoint" />
          </mxGeometry>
        </mxCell>
        <mxCell id="NCgDVOWuUd7d639b9hfE-28" value="" style="endArrow=none;html=1;rounded=0;exitX=1;exitY=0;exitDx=0;exitDy=0;entryX=0;entryY=0.5;entryDx=0;entryDy=0;" edge="1" parent="1" source="NCgDVOWuUd7d639b9hfE-18" target="NCgDVOWuUd7d639b9hfE-2">
          <mxGeometry width="50" height="50" relative="1" as="geometry">
            <mxPoint x="370" y="620" as="sourcePoint" />
            <mxPoint x="420" y="570" as="targetPoint" />
          </mxGeometry>
        </mxCell>
        <mxCell id="NCgDVOWuUd7d639b9hfE-29" value="" style="endArrow=none;html=1;rounded=0;exitX=1;exitY=0;exitDx=0;exitDy=0;entryX=0;entryY=0.5;entryDx=0;entryDy=0;" edge="1" parent="1" source="NCgDVOWuUd7d639b9hfE-17" target="NCgDVOWuUd7d639b9hfE-2">
          <mxGeometry width="50" height="50" relative="1" as="geometry">
            <mxPoint x="380" y="630" as="sourcePoint" />
            <mxPoint x="430" y="580" as="targetPoint" />
          </mxGeometry>
        </mxCell>
        <mxCell id="NCgDVOWuUd7d639b9hfE-30" value="" style="endArrow=none;html=1;rounded=0;entryX=0.425;entryY=1;entryDx=0;entryDy=0;exitX=0.5;exitY=0;exitDx=0;exitDy=0;entryPerimeter=0;" edge="1" parent="1" source="NCgDVOWuUd7d639b9hfE-41" target="NCgDVOWuUd7d639b9hfE-3">
          <mxGeometry width="50" height="50" relative="1" as="geometry">
            <mxPoint x="240" y="160" as="sourcePoint" />
            <mxPoint x="255" y="115" as="targetPoint" />
          </mxGeometry>
        </mxCell>
        <mxCell id="NCgDVOWuUd7d639b9hfE-31" value="" style="endArrow=none;html=1;rounded=0;entryX=0.5;entryY=1;entryDx=0;entryDy=0;exitX=0.5;exitY=0;exitDx=0;exitDy=0;" edge="1" parent="1" source="NCgDVOWuUd7d639b9hfE-3" target="NCgDVOWuUd7d639b9hfE-13">
          <mxGeometry width="50" height="50" relative="1" as="geometry">
            <mxPoint x="360" y="110" as="sourcePoint" />
            <mxPoint x="410" y="60" as="targetPoint" />
          </mxGeometry>
        </mxCell>
        <mxCell id="NCgDVOWuUd7d639b9hfE-32" value="" style="endArrow=none;html=1;rounded=0;entryX=0;entryY=1;entryDx=0;entryDy=0;exitX=0.5;exitY=0;exitDx=0;exitDy=0;" edge="1" parent="1" source="NCgDVOWuUd7d639b9hfE-3" target="NCgDVOWuUd7d639b9hfE-12">
          <mxGeometry width="50" height="50" relative="1" as="geometry">
            <mxPoint x="545" y="90" as="sourcePoint" />
            <mxPoint x="595" y="40" as="targetPoint" />
          </mxGeometry>
        </mxCell>
        <mxCell id="NCgDVOWuUd7d639b9hfE-33" value="" style="endArrow=none;html=1;rounded=0;entryX=0.5;entryY=1;entryDx=0;entryDy=0;exitX=0.5;exitY=0;exitDx=0;exitDy=0;" edge="1" parent="1" source="NCgDVOWuUd7d639b9hfE-3" target="NCgDVOWuUd7d639b9hfE-14">
          <mxGeometry width="50" height="50" relative="1" as="geometry">
            <mxPoint x="465" y="55" as="sourcePoint" />
            <mxPoint x="515" y="5" as="targetPoint" />
          </mxGeometry>
        </mxCell>
        <mxCell id="NCgDVOWuUd7d639b9hfE-34" value="" style="endArrow=none;html=1;rounded=0;entryX=0.25;entryY=0;entryDx=0;entryDy=0;exitX=0.5;exitY=1;exitDx=0;exitDy=0;" edge="1" parent="1" source="NCgDVOWuUd7d639b9hfE-41" target="NCgDVOWuUd7d639b9hfE-2">
          <mxGeometry width="50" height="50" relative="1" as="geometry">
            <mxPoint x="364" y="380" as="sourcePoint" />
            <mxPoint x="414" y="330" as="targetPoint" />
          </mxGeometry>
        </mxCell>
        <mxCell id="NCgDVOWuUd7d639b9hfE-35" value="" style="endArrow=none;html=1;rounded=0;entryX=0.5;entryY=1;entryDx=0;entryDy=0;exitX=0.5;exitY=0;exitDx=0;exitDy=0;" edge="1" parent="1" source="NCgDVOWuUd7d639b9hfE-42" target="NCgDVOWuUd7d639b9hfE-2">
          <mxGeometry width="50" height="50" relative="1" as="geometry">
            <mxPoint x="250" y="650" as="sourcePoint" />
            <mxPoint x="625" y="490" as="targetPoint" />
          </mxGeometry>
        </mxCell>
        <mxCell id="NCgDVOWuUd7d639b9hfE-36" value="" style="endArrow=none;html=1;rounded=0;entryX=0.5;entryY=0;entryDx=0;entryDy=0;exitX=0.5;exitY=1;exitDx=0;exitDy=0;" edge="1" parent="1" source="NCgDVOWuUd7d639b9hfE-59" target="NCgDVOWuUd7d639b9hfE-10">
          <mxGeometry width="50" height="50" relative="1" as="geometry">
            <mxPoint x="150" y="760" as="sourcePoint" />
            <mxPoint x="202" y="560" as="targetPoint" />
          </mxGeometry>
        </mxCell>
        <mxCell id="NCgDVOWuUd7d639b9hfE-37" value="" style="endArrow=none;html=1;rounded=0;entryX=0.75;entryY=1;entryDx=0;entryDy=0;exitX=0.5;exitY=0;exitDx=0;exitDy=0;" edge="1" parent="1" source="NCgDVOWuUd7d639b9hfE-59" target="NCgDVOWuUd7d639b9hfE-2">
          <mxGeometry width="50" height="50" relative="1" as="geometry">
            <mxPoint x="600" y="590" as="sourcePoint" />
            <mxPoint x="650" y="540" as="targetPoint" />
          </mxGeometry>
        </mxCell>
        <mxCell id="NCgDVOWuUd7d639b9hfE-38" value="" style="endArrow=none;html=1;rounded=0;entryX=0;entryY=0;entryDx=0;entryDy=0;exitX=0.5;exitY=1;exitDx=0;exitDy=0;" edge="1" parent="1" source="NCgDVOWuUd7d639b9hfE-59" target="NCgDVOWuUd7d639b9hfE-6">
          <mxGeometry width="50" height="50" relative="1" as="geometry">
            <mxPoint x="150" y="760" as="sourcePoint" />
            <mxPoint x="396" y="870" as="targetPoint" />
          </mxGeometry>
        </mxCell>
        <mxCell id="NCgDVOWuUd7d639b9hfE-39" value="" style="endArrow=none;html=1;rounded=0;entryX=0.5;entryY=0;entryDx=0;entryDy=0;exitX=0.5;exitY=1;exitDx=0;exitDy=0;" edge="1" parent="1" source="NCgDVOWuUd7d639b9hfE-59" target="NCgDVOWuUd7d639b9hfE-8">
          <mxGeometry width="50" height="50" relative="1" as="geometry">
            <mxPoint x="150" y="760" as="sourcePoint" />
            <mxPoint x="526" y="910" as="targetPoint" />
          </mxGeometry>
        </mxCell>
        <mxCell id="NCgDVOWuUd7d639b9hfE-40" value="" style="endArrow=none;html=1;rounded=0;entryX=1;entryY=1;entryDx=0;entryDy=0;exitX=0.5;exitY=0;exitDx=0;exitDy=0;" edge="1" parent="1" source="NCgDVOWuUd7d639b9hfE-3" target="NCgDVOWuUd7d639b9hfE-15">
          <mxGeometry width="50" height="50" relative="1" as="geometry">
            <mxPoint x="485" y="-70" as="sourcePoint" />
            <mxPoint x="535" y="-120" as="targetPoint" />
          </mxGeometry>
        </mxCell>
        <mxCell id="NCgDVOWuUd7d639b9hfE-41" value="구매" style="shape=rhombus;perimeter=rhombusPerimeter;whiteSpace=wrap;html=1;align=center;" vertex="1" parent="1">
          <mxGeometry x="90" y="15" width="120" height="60" as="geometry" />
        </mxCell>
        <mxCell id="NCgDVOWuUd7d639b9hfE-42" value="퀴즈" style="rounded=0;whiteSpace=wrap;html=1;" vertex="1" parent="1">
          <mxGeometry x="-270" y="620" width="120" height="60" as="geometry" />
        </mxCell>
        <mxCell id="NCgDVOWuUd7d639b9hfE-43" value="N" style="text;html=1;strokeColor=none;fillColor=none;align=center;verticalAlign=middle;whiteSpace=wrap;rounded=0;" vertex="1" parent="1">
          <mxGeometry x="-220" y="590" width="60" height="30" as="geometry" />
        </mxCell>
        <mxCell id="NCgDVOWuUd7d639b9hfE-45" value="1" style="text;html=1;strokeColor=none;fillColor=none;align=center;verticalAlign=middle;whiteSpace=wrap;rounded=0;" vertex="1" parent="1">
          <mxGeometry x="120" y="410" width="30" height="20" as="geometry" />
        </mxCell>
        <mxCell id="NCgDVOWuUd7d639b9hfE-46" value="" style="endArrow=none;html=1;rounded=0;entryX=0.5;entryY=0;entryDx=0;entryDy=0;exitX=0.5;exitY=1;exitDx=0;exitDy=0;" edge="1" parent="1" source="NCgDVOWuUd7d639b9hfE-59" target="NCgDVOWuUd7d639b9hfE-9">
          <mxGeometry width="50" height="50" relative="1" as="geometry">
            <mxPoint x="150" y="760" as="sourcePoint" />
            <mxPoint x="416" y="1020" as="targetPoint" />
          </mxGeometry>
        </mxCell>
        <mxCell id="NCgDVOWuUd7d639b9hfE-47" value="" style="endArrow=none;html=1;rounded=0;exitX=0.5;exitY=1;exitDx=0;exitDy=0;entryX=1;entryY=0;entryDx=0;entryDy=0;" edge="1" parent="1" source="NCgDVOWuUd7d639b9hfE-42" target="NCgDVOWuUd7d639b9hfE-11">
          <mxGeometry width="50" height="50" relative="1" as="geometry">
            <mxPoint x="205" y="690" as="sourcePoint" />
            <mxPoint x="255" y="640" as="targetPoint" />
          </mxGeometry>
        </mxCell>
        <mxCell id="NCgDVOWuUd7d639b9hfE-48" value="" style="endArrow=none;html=1;rounded=0;exitX=0.5;exitY=1;exitDx=0;exitDy=0;entryX=1;entryY=0;entryDx=0;entryDy=0;" edge="1" parent="1" source="NCgDVOWuUd7d639b9hfE-42" target="NCgDVOWuUd7d639b9hfE-53">
          <mxGeometry width="50" height="50" relative="1" as="geometry">
            <mxPoint x="215" y="700" as="sourcePoint" />
            <mxPoint x="265" y="650" as="targetPoint" />
          </mxGeometry>
        </mxCell>
        <mxCell id="NCgDVOWuUd7d639b9hfE-49" value="" style="endArrow=none;html=1;rounded=0;exitX=0.5;exitY=1;exitDx=0;exitDy=0;entryX=0.5;entryY=0;entryDx=0;entryDy=0;" edge="1" parent="1" source="NCgDVOWuUd7d639b9hfE-42" target="NCgDVOWuUd7d639b9hfE-55">
          <mxGeometry width="50" height="50" relative="1" as="geometry">
            <mxPoint x="225" y="710" as="sourcePoint" />
            <mxPoint x="275" y="660" as="targetPoint" />
          </mxGeometry>
        </mxCell>
        <mxCell id="NCgDVOWuUd7d639b9hfE-50" value="" style="endArrow=none;html=1;rounded=0;exitX=0.5;exitY=1;exitDx=0;exitDy=0;entryX=0.5;entryY=0;entryDx=0;entryDy=0;" edge="1" parent="1" source="NCgDVOWuUd7d639b9hfE-42" target="NCgDVOWuUd7d639b9hfE-56">
          <mxGeometry width="50" height="50" relative="1" as="geometry">
            <mxPoint x="235" y="720" as="sourcePoint" />
            <mxPoint x="285" y="670" as="targetPoint" />
          </mxGeometry>
        </mxCell>
        <mxCell id="NCgDVOWuUd7d639b9hfE-51" value="" style="endArrow=none;html=1;rounded=0;exitX=0;exitY=0;exitDx=0;exitDy=0;entryX=0.5;entryY=1;entryDx=0;entryDy=0;" edge="1" parent="1" source="NCgDVOWuUd7d639b9hfE-57" target="NCgDVOWuUd7d639b9hfE-42">
          <mxGeometry width="50" height="50" relative="1" as="geometry">
            <mxPoint x="245" y="730" as="sourcePoint" />
            <mxPoint x="-70" y="660" as="targetPoint" />
          </mxGeometry>
        </mxCell>
        <mxCell id="NCgDVOWuUd7d639b9hfE-52" value="" style="endArrow=none;html=1;rounded=0;entryX=0.5;entryY=1;entryDx=0;entryDy=0;exitX=0;exitY=0.5;exitDx=0;exitDy=0;" edge="1" parent="1" source="NCgDVOWuUd7d639b9hfE-54" target="NCgDVOWuUd7d639b9hfE-42">
          <mxGeometry width="50" height="50" relative="1" as="geometry">
            <mxPoint x="255" y="740" as="sourcePoint" />
            <mxPoint x="305" y="690" as="targetPoint" />
          </mxGeometry>
        </mxCell>
        <mxCell id="NCgDVOWuUd7d639b9hfE-53" value="퀴즈제목" style="ellipse;whiteSpace=wrap;html=1;" vertex="1" parent="1">
          <mxGeometry x="-410" y="860" width="100" height="60" as="geometry" />
        </mxCell>
        <mxCell id="NCgDVOWuUd7d639b9hfE-54" value="정답 포인트" style="ellipse;whiteSpace=wrap;html=1;" vertex="1" parent="1">
          <mxGeometry x="-70" y="790" width="100" height="60" as="geometry" />
        </mxCell>
        <mxCell id="NCgDVOWuUd7d639b9hfE-55" value="퀴즈내용" style="ellipse;whiteSpace=wrap;html=1;" vertex="1" parent="1">
          <mxGeometry x="-340" y="930" width="100" height="60" as="geometry" />
        </mxCell>
        <mxCell id="NCgDVOWuUd7d639b9hfE-56" value="퀴즈 정답" style="ellipse;whiteSpace=wrap;html=1;" vertex="1" parent="1">
          <mxGeometry x="-210" y="930" width="100" height="60" as="geometry" />
        </mxCell>
        <mxCell id="NCgDVOWuUd7d639b9hfE-57" value="퀴즈해설" style="ellipse;whiteSpace=wrap;html=1;" vertex="1" parent="1">
          <mxGeometry x="-130" y="860" width="100" height="60" as="geometry" />
        </mxCell>
        <mxCell id="NCgDVOWuUd7d639b9hfE-59" value="출석체크" style="rounded=0;whiteSpace=wrap;html=1;" vertex="1" parent="1">
          <mxGeometry x="80" y="690" width="120" height="60" as="geometry" />
        </mxCell>
        <mxCell id="NCgDVOWuUd7d639b9hfE-60" value="1" style="text;html=1;strokeColor=none;fillColor=none;align=center;verticalAlign=middle;whiteSpace=wrap;rounded=0;" vertex="1" parent="1">
          <mxGeometry x="180" y="410" width="30" height="20" as="geometry" />
        </mxCell>
        <mxCell id="NCgDVOWuUd7d639b9hfE-61" value="1" style="text;html=1;strokeColor=none;fillColor=none;align=center;verticalAlign=middle;whiteSpace=wrap;rounded=0;" vertex="1" parent="1">
          <mxGeometry x="135" y="670" width="30" height="20" as="geometry" />
        </mxCell>
        <mxCell id="NCgDVOWuUd7d639b9hfE-62" value="" style="endArrow=none;html=1;rounded=0;entryX=1;entryY=0.5;entryDx=0;entryDy=0;exitX=0;exitY=0.5;exitDx=0;exitDy=0;" edge="1" parent="1" source="NCgDVOWuUd7d639b9hfE-64" target="NCgDVOWuUd7d639b9hfE-59">
          <mxGeometry width="50" height="50" relative="1" as="geometry">
            <mxPoint x="136" y="980" as="sourcePoint" />
            <mxPoint x="186" y="760" as="targetPoint" />
          </mxGeometry>
        </mxCell>
        <mxCell id="NCgDVOWuUd7d639b9hfE-63" value="" style="endArrow=none;html=1;rounded=0;exitX=1;exitY=0.75;exitDx=0;exitDy=0;entryX=0;entryY=0.5;entryDx=0;entryDy=0;" edge="1" parent="1" source="NCgDVOWuUd7d639b9hfE-2" target="NCgDVOWuUd7d639b9hfE-72">
          <mxGeometry width="50" height="50" relative="1" as="geometry">
            <mxPoint x="550" y="530" as="sourcePoint" />
            <mxPoint x="450" y="450" as="targetPoint" />
          </mxGeometry>
        </mxCell>
        <mxCell id="NCgDVOWuUd7d639b9hfE-64" value="지난달 출석체크" style="rounded=0;whiteSpace=wrap;html=1;" vertex="1" parent="1">
          <mxGeometry x="340" y="690" width="120" height="60" as="geometry" />
        </mxCell>
        <mxCell id="NCgDVOWuUd7d639b9hfE-65" value="" style="endArrow=none;html=1;rounded=0;entryX=1;entryY=0.5;entryDx=0;entryDy=0;" edge="1" parent="1" source="NCgDVOWuUd7d639b9hfE-66" target="NCgDVOWuUd7d639b9hfE-64">
          <mxGeometry width="50" height="50" relative="1" as="geometry">
            <mxPoint x="386" y="1090" as="sourcePoint" />
            <mxPoint x="390" y="860" as="targetPoint" />
          </mxGeometry>
        </mxCell>
        <mxCell id="NCgDVOWuUd7d639b9hfE-66" value="예전 출석체크" style="rounded=0;whiteSpace=wrap;html=1;" vertex="1" parent="1">
          <mxGeometry x="580" y="690" width="120" height="60" as="geometry" />
        </mxCell>
        <mxCell id="NCgDVOWuUd7d639b9hfE-67" value="1" style="text;html=1;strokeColor=none;fillColor=none;align=center;verticalAlign=middle;whiteSpace=wrap;rounded=0;" vertex="1" parent="1">
          <mxGeometry x="200" y="700" width="30" height="20" as="geometry" />
        </mxCell>
        <mxCell id="NCgDVOWuUd7d639b9hfE-68" value="1" style="text;html=1;strokeColor=none;fillColor=none;align=center;verticalAlign=middle;whiteSpace=wrap;rounded=0;" vertex="1" parent="1">
          <mxGeometry x="310" y="700" width="30" height="20" as="geometry" />
        </mxCell>
        <mxCell id="NCgDVOWuUd7d639b9hfE-69" value="1" style="text;html=1;strokeColor=none;fillColor=none;align=center;verticalAlign=middle;whiteSpace=wrap;rounded=0;" vertex="1" parent="1">
          <mxGeometry x="550" y="700" width="30" height="20" as="geometry" />
        </mxCell>
        <mxCell id="NCgDVOWuUd7d639b9hfE-70" value="1" style="text;html=1;strokeColor=none;fillColor=none;align=center;verticalAlign=middle;whiteSpace=wrap;rounded=0;" vertex="1" parent="1">
          <mxGeometry x="460" y="700" width="30" height="20" as="geometry" />
        </mxCell>
        <mxCell id="NCgDVOWuUd7d639b9hfE-72" value="랭킹" style="rounded=0;whiteSpace=wrap;html=1;" vertex="1" parent="1">
          <mxGeometry x="335" y="470" width="120" height="60" as="geometry" />
        </mxCell>
        <mxCell id="NCgDVOWuUd7d639b9hfE-73" value="N" style="text;html=1;strokeColor=none;fillColor=none;align=center;verticalAlign=middle;whiteSpace=wrap;rounded=0;" vertex="1" parent="1">
          <mxGeometry x="210" y="370" width="26" height="30" as="geometry" />
        </mxCell>
        <mxCell id="NCgDVOWuUd7d639b9hfE-74" value="1" style="text;html=1;strokeColor=none;fillColor=none;align=center;verticalAlign=middle;whiteSpace=wrap;rounded=0;" vertex="1" parent="1">
          <mxGeometry x="305" y="480" width="30" height="20" as="geometry" />
        </mxCell>
        <mxCell id="NCgDVOWuUd7d639b9hfE-75" value="" style="endArrow=none;html=1;rounded=0;exitX=1;exitY=0.5;exitDx=0;exitDy=0;entryX=0;entryY=1;entryDx=0;entryDy=0;" edge="1" parent="1" source="NCgDVOWuUd7d639b9hfE-72" target="NCgDVOWuUd7d639b9hfE-90">
          <mxGeometry width="50" height="50" relative="1" as="geometry">
            <mxPoint x="525" y="860" as="sourcePoint" />
            <mxPoint x="525" y="440" as="targetPoint" />
          </mxGeometry>
        </mxCell>
        <mxCell id="NCgDVOWuUd7d639b9hfE-76" value="" style="endArrow=none;html=1;rounded=0;entryX=1;entryY=0.5;entryDx=0;entryDy=0;exitX=0;exitY=0.5;exitDx=0;exitDy=0;" edge="1" parent="1" source="NCgDVOWuUd7d639b9hfE-89" target="NCgDVOWuUd7d639b9hfE-72">
          <mxGeometry width="50" height="50" relative="1" as="geometry">
            <mxPoint x="525" y="500" as="sourcePoint" />
            <mxPoint x="535" y="750" as="targetPoint" />
          </mxGeometry>
        </mxCell>
        <mxCell id="NCgDVOWuUd7d639b9hfE-77" value="" style="endArrow=none;html=1;rounded=0;entryX=1;entryY=0.5;entryDx=0;entryDy=0;exitX=0;exitY=0.5;exitDx=0;exitDy=0;" edge="1" parent="1" source="NCgDVOWuUd7d639b9hfE-88" target="NCgDVOWuUd7d639b9hfE-72">
          <mxGeometry width="50" height="50" relative="1" as="geometry">
            <mxPoint x="535" y="530" as="sourcePoint" />
            <mxPoint x="545" y="760" as="targetPoint" />
          </mxGeometry>
        </mxCell>
        <mxCell id="NCgDVOWuUd7d639b9hfE-78" value="" style="endArrow=none;html=1;rounded=0;entryX=1;entryY=0.5;entryDx=0;entryDy=0;exitX=0;exitY=0;exitDx=0;exitDy=0;" edge="1" parent="1" source="NCgDVOWuUd7d639b9hfE-87" target="NCgDVOWuUd7d639b9hfE-72">
          <mxGeometry width="50" height="50" relative="1" as="geometry">
            <mxPoint x="515" y="570" as="sourcePoint" />
            <mxPoint x="555" y="770" as="targetPoint" />
          </mxGeometry>
        </mxCell>
        <mxCell id="NCgDVOWuUd7d639b9hfE-80" value="" style="endArrow=none;html=1;rounded=0;exitX=0.5;exitY=0;exitDx=0;exitDy=0;" edge="1" parent="1" source="NCgDVOWuUd7d639b9hfE-2" target="NCgDVOWuUd7d639b9hfE-99">
          <mxGeometry width="50" height="50" relative="1" as="geometry">
            <mxPoint x="380" y="390" as="sourcePoint" />
            <mxPoint x="430" y="-80" as="targetPoint" />
          </mxGeometry>
        </mxCell>
        <mxCell id="NCgDVOWuUd7d639b9hfE-81" value="" style="endArrow=none;html=1;rounded=0;exitX=1;exitY=0;exitDx=0;exitDy=0;" edge="1" parent="1" source="NCgDVOWuUd7d639b9hfE-2" target="NCgDVOWuUd7d639b9hfE-100">
          <mxGeometry width="50" height="50" relative="1" as="geometry">
            <mxPoint x="439.5" y="420" as="sourcePoint" />
            <mxPoint x="470" y="170" as="targetPoint" />
          </mxGeometry>
        </mxCell>
        <mxCell id="NCgDVOWuUd7d639b9hfE-82" value="" style="endArrow=none;html=1;rounded=0;exitX=0.5;exitY=0;exitDx=0;exitDy=0;entryX=0.5;entryY=1;entryDx=0;entryDy=0;" edge="1" parent="1" source="NCgDVOWuUd7d639b9hfE-99" target="NCgDVOWuUd7d639b9hfE-7">
          <mxGeometry width="50" height="50" relative="1" as="geometry">
            <mxPoint x="570" y="-110" as="sourcePoint" />
            <mxPoint x="420" y="-350" as="targetPoint" />
          </mxGeometry>
        </mxCell>
        <mxCell id="NCgDVOWuUd7d639b9hfE-83" value="" style="endArrow=none;html=1;rounded=0;exitX=0.5;exitY=0;exitDx=0;exitDy=0;entryX=0;entryY=1;entryDx=0;entryDy=0;" edge="1" parent="1" source="NCgDVOWuUd7d639b9hfE-99" target="NCgDVOWuUd7d639b9hfE-111">
          <mxGeometry width="50" height="50" relative="1" as="geometry">
            <mxPoint x="580" y="-100" as="sourcePoint" />
            <mxPoint x="500" y="-330" as="targetPoint" />
          </mxGeometry>
        </mxCell>
        <mxCell id="NCgDVOWuUd7d639b9hfE-84" value="수량" style="ellipse;whiteSpace=wrap;html=1;" vertex="1" parent="1">
          <mxGeometry x="-105" y="-50" width="100" height="60" as="geometry" />
        </mxCell>
        <mxCell id="NCgDVOWuUd7d639b9hfE-85" value="상품번호" style="ellipse;whiteSpace=wrap;html=1;" vertex="1" parent="1">
          <mxGeometry x="-85" y="-130" width="100" height="60" as="geometry" />
        </mxCell>
        <mxCell id="NCgDVOWuUd7d639b9hfE-86" value="&lt;u&gt;유저아이디&lt;/u&gt;" style="ellipse;whiteSpace=wrap;html=1;" vertex="1" parent="1">
          <mxGeometry x="5" y="-190" width="100" height="60" as="geometry" />
        </mxCell>
        <mxCell id="NCgDVOWuUd7d639b9hfE-87" value="등수" style="ellipse;whiteSpace=wrap;html=1;" vertex="1" parent="1">
          <mxGeometry x="515" y="590" width="100" height="60" as="geometry" />
        </mxCell>
        <mxCell id="NCgDVOWuUd7d639b9hfE-88" value="동네점수" style="ellipse;whiteSpace=wrap;html=1;" vertex="1" parent="1">
          <mxGeometry x="525" y="520" width="100" height="60" as="geometry" />
        </mxCell>
        <mxCell id="NCgDVOWuUd7d639b9hfE-89" value="동네이름" style="ellipse;whiteSpace=wrap;html=1;" vertex="1" parent="1">
          <mxGeometry x="525" y="450" width="100" height="60" as="geometry" />
        </mxCell>
        <mxCell id="NCgDVOWuUd7d639b9hfE-90" value="동네아이디" style="ellipse;whiteSpace=wrap;html=1;" vertex="1" parent="1">
          <mxGeometry x="515" y="380" width="100" height="60" as="geometry" />
        </mxCell>
        <mxCell id="NCgDVOWuUd7d639b9hfE-91" value="" style="endArrow=none;html=1;rounded=0;exitX=0;exitY=0;exitDx=0;exitDy=0;entryX=1;entryY=0.5;entryDx=0;entryDy=0;" edge="1" parent="1" source="NCgDVOWuUd7d639b9hfE-41" target="NCgDVOWuUd7d639b9hfE-84">
          <mxGeometry width="50" height="50" relative="1" as="geometry">
            <mxPoint x="-150" y="90" as="sourcePoint" />
            <mxPoint x="-80" y="-60" as="targetPoint" />
          </mxGeometry>
        </mxCell>
        <mxCell id="NCgDVOWuUd7d639b9hfE-92" value="" style="endArrow=none;html=1;rounded=0;exitX=0;exitY=0;exitDx=0;exitDy=0;entryX=1;entryY=1;entryDx=0;entryDy=0;" edge="1" parent="1" source="NCgDVOWuUd7d639b9hfE-41" target="NCgDVOWuUd7d639b9hfE-85">
          <mxGeometry width="50" height="50" relative="1" as="geometry">
            <mxPoint x="-135" y="40" as="sourcePoint" />
            <mxPoint x="-60" y="-80" as="targetPoint" />
          </mxGeometry>
        </mxCell>
        <mxCell id="NCgDVOWuUd7d639b9hfE-93" value="" style="endArrow=none;html=1;rounded=0;exitX=0;exitY=0;exitDx=0;exitDy=0;entryX=0.5;entryY=1;entryDx=0;entryDy=0;" edge="1" parent="1" source="NCgDVOWuUd7d639b9hfE-41" target="NCgDVOWuUd7d639b9hfE-86">
          <mxGeometry width="50" height="50" relative="1" as="geometry">
            <mxPoint x="-50" y="-5" as="sourcePoint" />
            <mxPoint x="-30" y="-100" as="targetPoint" />
          </mxGeometry>
        </mxCell>
        <mxCell id="NCgDVOWuUd7d639b9hfE-94" value="1" style="text;html=1;strokeColor=none;fillColor=none;align=center;verticalAlign=middle;whiteSpace=wrap;rounded=0;" vertex="1" parent="1">
          <mxGeometry x="100" y="330" width="30" height="20" as="geometry" />
        </mxCell>
        <mxCell id="NCgDVOWuUd7d639b9hfE-95" value="1" style="text;html=1;strokeColor=none;fillColor=none;align=center;verticalAlign=middle;whiteSpace=wrap;rounded=0;" vertex="1" parent="1">
          <mxGeometry x="150" width="30" height="20" as="geometry" />
        </mxCell>
        <mxCell id="NCgDVOWuUd7d639b9hfE-96" value="N" style="text;html=1;strokeColor=none;fillColor=none;align=center;verticalAlign=middle;whiteSpace=wrap;rounded=0;" vertex="1" parent="1">
          <mxGeometry x="124" y="70" width="26" height="30" as="geometry" />
        </mxCell>
        <mxCell id="NCgDVOWuUd7d639b9hfE-97" value="N" style="text;html=1;strokeColor=none;fillColor=none;align=center;verticalAlign=middle;whiteSpace=wrap;rounded=0;" vertex="1" parent="1">
          <mxGeometry x="189" y="-80" width="26" height="30" as="geometry" />
        </mxCell>
        <mxCell id="NCgDVOWuUd7d639b9hfE-99" value="&lt;font style=&quot;font-size: 16px;&quot;&gt;포인트 사용내역&lt;/font&gt;" style="rounded=0;whiteSpace=wrap;html=1;" vertex="1" parent="1">
          <mxGeometry x="325" y="-60" width="120" height="60" as="geometry" />
        </mxCell>
        <mxCell id="NCgDVOWuUd7d639b9hfE-100" value="구매내역" style="rounded=0;whiteSpace=wrap;html=1;" vertex="1" parent="1">
          <mxGeometry x="405" y="240" width="120" height="60" as="geometry" />
        </mxCell>
        <mxCell id="NCgDVOWuUd7d639b9hfE-101" value="1" style="text;html=1;strokeColor=none;fillColor=none;align=center;verticalAlign=middle;whiteSpace=wrap;rounded=0;" vertex="1" parent="1">
          <mxGeometry x="310" width="30" height="20" as="geometry" />
        </mxCell>
        <mxCell id="NCgDVOWuUd7d639b9hfE-102" value="1" style="text;html=1;strokeColor=none;fillColor=none;align=center;verticalAlign=middle;whiteSpace=wrap;rounded=0;" vertex="1" parent="1">
          <mxGeometry x="187" y="330" width="30" height="20" as="geometry" />
        </mxCell>
        <mxCell id="NCgDVOWuUd7d639b9hfE-103" value="1" style="text;html=1;strokeColor=none;fillColor=none;align=center;verticalAlign=middle;whiteSpace=wrap;rounded=0;" vertex="1" parent="1">
          <mxGeometry x="375" y="270" width="30" height="20" as="geometry" />
        </mxCell>
        <mxCell id="NCgDVOWuUd7d639b9hfE-104" value="1" style="text;html=1;strokeColor=none;fillColor=none;align=center;verticalAlign=middle;whiteSpace=wrap;rounded=0;" vertex="1" parent="1">
          <mxGeometry x="130" y="330" width="30" height="20" as="geometry" />
        </mxCell>
        <mxCell id="NCgDVOWuUd7d639b9hfE-105" value="" style="endArrow=none;html=1;rounded=0;exitX=0.5;exitY=0;exitDx=0;exitDy=0;entryX=0;entryY=1;entryDx=0;entryDy=0;" edge="1" parent="1" source="NCgDVOWuUd7d639b9hfE-99" target="NCgDVOWuUd7d639b9hfE-113">
          <mxGeometry width="50" height="50" relative="1" as="geometry">
            <mxPoint x="590" y="-90" as="sourcePoint" />
            <mxPoint x="560" y="-320" as="targetPoint" />
          </mxGeometry>
        </mxCell>
        <mxCell id="NCgDVOWuUd7d639b9hfE-106" value="" style="endArrow=none;html=1;rounded=0;exitX=0.5;exitY=0;exitDx=0;exitDy=0;entryX=0;entryY=1;entryDx=0;entryDy=0;" edge="1" parent="1" source="NCgDVOWuUd7d639b9hfE-99" target="NCgDVOWuUd7d639b9hfE-112">
          <mxGeometry width="50" height="50" relative="1" as="geometry">
            <mxPoint x="600" y="-80" as="sourcePoint" />
            <mxPoint x="590" y="-270" as="targetPoint" />
          </mxGeometry>
        </mxCell>
        <mxCell id="NCgDVOWuUd7d639b9hfE-107" value="" style="endArrow=none;html=1;rounded=0;entryX=0.5;entryY=1;entryDx=0;entryDy=0;exitX=1;exitY=0;exitDx=0;exitDy=0;" edge="1" parent="1" source="NCgDVOWuUd7d639b9hfE-100" target="NCgDVOWuUd7d639b9hfE-118">
          <mxGeometry width="50" height="50" relative="1" as="geometry">
            <mxPoint x="560" y="250" as="sourcePoint" />
            <mxPoint x="540" y="90" as="targetPoint" />
          </mxGeometry>
        </mxCell>
        <mxCell id="NCgDVOWuUd7d639b9hfE-108" value="" style="endArrow=none;html=1;rounded=0;entryX=0.5;entryY=1;entryDx=0;entryDy=0;exitX=1;exitY=0;exitDx=0;exitDy=0;" edge="1" parent="1" source="NCgDVOWuUd7d639b9hfE-100" target="NCgDVOWuUd7d639b9hfE-117">
          <mxGeometry width="50" height="50" relative="1" as="geometry">
            <mxPoint x="490" y="210" as="sourcePoint" />
            <mxPoint x="600" y="80" as="targetPoint" />
          </mxGeometry>
        </mxCell>
        <mxCell id="NCgDVOWuUd7d639b9hfE-109" value="" style="endArrow=none;html=1;rounded=0;entryX=0;entryY=1;entryDx=0;entryDy=0;exitX=1;exitY=0;exitDx=0;exitDy=0;" edge="1" parent="1" source="NCgDVOWuUd7d639b9hfE-100" target="NCgDVOWuUd7d639b9hfE-116">
          <mxGeometry width="50" height="50" relative="1" as="geometry">
            <mxPoint x="520" y="240" as="sourcePoint" />
            <mxPoint x="680" y="70" as="targetPoint" />
          </mxGeometry>
        </mxCell>
        <mxCell id="NCgDVOWuUd7d639b9hfE-110" value="" style="endArrow=none;html=1;rounded=0;entryX=0;entryY=1;entryDx=0;entryDy=0;exitX=1;exitY=0;exitDx=0;exitDy=0;" edge="1" parent="1" source="NCgDVOWuUd7d639b9hfE-100" target="NCgDVOWuUd7d639b9hfE-115">
          <mxGeometry width="50" height="50" relative="1" as="geometry">
            <mxPoint x="560" y="250" as="sourcePoint" />
            <mxPoint x="710" y="120" as="targetPoint" />
          </mxGeometry>
        </mxCell>
        <mxCell id="NCgDVOWuUd7d639b9hfE-111" value="들어온 포인트" style="ellipse;whiteSpace=wrap;html=1;" vertex="1" parent="1">
          <mxGeometry x="500" y="-290" width="100" height="60" as="geometry" />
        </mxCell>
        <mxCell id="NCgDVOWuUd7d639b9hfE-112" value="포인트 변동 날짜" style="ellipse;whiteSpace=wrap;html=1;" vertex="1" parent="1">
          <mxGeometry x="660" y="-180" width="100" height="60" as="geometry" />
        </mxCell>
        <mxCell id="NCgDVOWuUd7d639b9hfE-113" value="사용한 포인트" style="ellipse;whiteSpace=wrap;html=1;" vertex="1" parent="1">
          <mxGeometry x="600" y="-250" width="100" height="60" as="geometry" />
        </mxCell>
        <mxCell id="NCgDVOWuUd7d639b9hfE-114" value="사용포인트" style="ellipse;whiteSpace=wrap;html=1;" vertex="1" parent="1">
          <mxGeometry x="737" y="180" width="100" height="60" as="geometry" />
        </mxCell>
        <mxCell id="NCgDVOWuUd7d639b9hfE-115" value="구매날짜" style="ellipse;whiteSpace=wrap;html=1;" vertex="1" parent="1">
          <mxGeometry x="737" y="85" width="100" height="60" as="geometry" />
        </mxCell>
        <mxCell id="NCgDVOWuUd7d639b9hfE-116" value="수량" style="ellipse;whiteSpace=wrap;html=1;" vertex="1" parent="1">
          <mxGeometry x="700" y="10" width="100" height="60" as="geometry" />
        </mxCell>
        <mxCell id="NCgDVOWuUd7d639b9hfE-117" value="상품명" style="ellipse;whiteSpace=wrap;html=1;" vertex="1" parent="1">
          <mxGeometry x="600" y="-30" width="100" height="60" as="geometry" />
        </mxCell>
        <mxCell id="NCgDVOWuUd7d639b9hfE-118" value="&lt;u&gt;유저아이디&lt;/u&gt;" style="ellipse;whiteSpace=wrap;html=1;" vertex="1" parent="1">
          <mxGeometry x="500" y="-5" width="100" height="60" as="geometry" />
        </mxCell>
        <mxCell id="NCgDVOWuUd7d639b9hfE-119" value="" style="endArrow=none;html=1;rounded=0;entryX=0;entryY=0.5;entryDx=0;entryDy=0;" edge="1" parent="1" target="NCgDVOWuUd7d639b9hfE-114">
          <mxGeometry width="50" height="50" relative="1" as="geometry">
            <mxPoint x="520" y="240" as="sourcePoint" />
            <mxPoint x="710" y="230" as="targetPoint" />
          </mxGeometry>
        </mxCell>
        <mxCell id="NCgDVOWuUd7d639b9hfE-120" value="" style="endArrow=none;html=1;rounded=0;exitX=1;exitY=0.5;exitDx=0;exitDy=0;entryX=0;entryY=1;entryDx=0;entryDy=0;" edge="1" parent="1" source="NCgDVOWuUd7d639b9hfE-4" target="NCgDVOWuUd7d639b9hfE-5">
          <mxGeometry width="50" height="50" relative="1" as="geometry">
            <mxPoint x="950" y="-80" as="sourcePoint" />
            <mxPoint x="1050" y="-260" as="targetPoint" />
          </mxGeometry>
        </mxCell>
        <mxCell id="NCgDVOWuUd7d639b9hfE-121" value="" style="endArrow=none;html=1;rounded=0;exitX=1;exitY=0.5;exitDx=0;exitDy=0;entryX=0;entryY=1;entryDx=0;entryDy=0;" edge="1" parent="1" source="NCgDVOWuUd7d639b9hfE-4" target="NCgDVOWuUd7d639b9hfE-127">
          <mxGeometry width="50" height="50" relative="1" as="geometry">
            <mxPoint x="990" y="-10" as="sourcePoint" />
            <mxPoint x="1100" y="-220" as="targetPoint" />
          </mxGeometry>
        </mxCell>
        <mxCell id="NCgDVOWuUd7d639b9hfE-122" value="" style="endArrow=none;html=1;rounded=0;exitX=1;exitY=0.5;exitDx=0;exitDy=0;entryX=0;entryY=0.5;entryDx=0;entryDy=0;" edge="1" parent="1" source="NCgDVOWuUd7d639b9hfE-4" target="NCgDVOWuUd7d639b9hfE-128">
          <mxGeometry width="50" height="50" relative="1" as="geometry">
            <mxPoint x="1000" as="sourcePoint" />
            <mxPoint x="1130" y="-170" as="targetPoint" />
          </mxGeometry>
        </mxCell>
        <mxCell id="NCgDVOWuUd7d639b9hfE-123" value="" style="endArrow=none;html=1;rounded=0;exitX=1;exitY=0.5;exitDx=0;exitDy=0;entryX=0;entryY=0.5;entryDx=0;entryDy=0;" edge="1" parent="1" source="NCgDVOWuUd7d639b9hfE-4" target="NCgDVOWuUd7d639b9hfE-129">
          <mxGeometry width="50" height="50" relative="1" as="geometry">
            <mxPoint x="1010" y="10" as="sourcePoint" />
            <mxPoint x="1170" y="-120" as="targetPoint" />
          </mxGeometry>
        </mxCell>
        <mxCell id="NCgDVOWuUd7d639b9hfE-124" value="" style="endArrow=none;html=1;rounded=0;exitX=1;exitY=0.5;exitDx=0;exitDy=0;entryX=0;entryY=0.5;entryDx=0;entryDy=0;" edge="1" parent="1" source="NCgDVOWuUd7d639b9hfE-4" target="NCgDVOWuUd7d639b9hfE-130">
          <mxGeometry width="50" height="50" relative="1" as="geometry">
            <mxPoint x="1020" y="20" as="sourcePoint" />
            <mxPoint x="1190" y="-60" as="targetPoint" />
          </mxGeometry>
        </mxCell>
        <mxCell id="NCgDVOWuUd7d639b9hfE-125" value="" style="endArrow=none;html=1;rounded=0;exitX=1;exitY=0.5;exitDx=0;exitDy=0;entryX=0;entryY=0;entryDx=0;entryDy=0;" edge="1" parent="1" source="NCgDVOWuUd7d639b9hfE-4" target="NCgDVOWuUd7d639b9hfE-131">
          <mxGeometry width="50" height="50" relative="1" as="geometry">
            <mxPoint x="1030" y="30" as="sourcePoint" />
            <mxPoint x="1160" y="70" as="targetPoint" />
          </mxGeometry>
        </mxCell>
        <mxCell id="NCgDVOWuUd7d639b9hfE-126" value="" style="endArrow=none;html=1;rounded=0;exitX=1;exitY=0.5;exitDx=0;exitDy=0;entryX=0.5;entryY=0;entryDx=0;entryDy=0;" edge="1" parent="1" source="NCgDVOWuUd7d639b9hfE-4" target="NCgDVOWuUd7d639b9hfE-132">
          <mxGeometry width="50" height="50" relative="1" as="geometry">
            <mxPoint x="1040" y="40" as="sourcePoint" />
            <mxPoint x="1070" y="100" as="targetPoint" />
          </mxGeometry>
        </mxCell>
        <mxCell id="NCgDVOWuUd7d639b9hfE-127" value="쓰레기이름" style="ellipse;whiteSpace=wrap;html=1;" vertex="1" parent="1">
          <mxGeometry x="1130" y="-265" width="100" height="60" as="geometry" />
        </mxCell>
        <mxCell id="NCgDVOWuUd7d639b9hfE-128" value="분리수거 방법" style="ellipse;whiteSpace=wrap;html=1;" vertex="1" parent="1">
          <mxGeometry x="1160" y="-160" width="100" height="60" as="geometry" />
        </mxCell>
        <mxCell id="NCgDVOWuUd7d639b9hfE-129" value="분리수거 영상" style="ellipse;whiteSpace=wrap;html=1;" vertex="1" parent="1">
          <mxGeometry x="1180" y="-50" width="100" height="60" as="geometry" />
        </mxCell>
        <mxCell id="NCgDVOWuUd7d639b9hfE-130" value="재활용 방법" style="ellipse;whiteSpace=wrap;html=1;" vertex="1" parent="1">
          <mxGeometry x="1160" y="90" width="100" height="60" as="geometry" />
        </mxCell>
        <mxCell id="NCgDVOWuUd7d639b9hfE-131" value="재활용 영상" style="ellipse;whiteSpace=wrap;html=1;" vertex="1" parent="1">
          <mxGeometry x="1100" y="180" width="100" height="60" as="geometry" />
        </mxCell>
        <mxCell id="NCgDVOWuUd7d639b9hfE-132" value="조회수" style="ellipse;whiteSpace=wrap;html=1;" vertex="1" parent="1">
          <mxGeometry x="1000" y="230" width="100" height="60" as="geometry" />
        </mxCell>
      </root>
    </mxGraphModel>
  </diagram>
</mxfile>
